<svg width="147" height="37" viewBox="0 0 147 37" fill="none" xmlns="http://www.w3.org/2000/svg">
<g clip-path="url(#clip0_63_648)">
<g clip-path="url(#clip1_63_648)">
<path d="M9.15989 2.69283C9.1225 2.62068 9.09969 2.54188 9.09276 2.46092C9.08583 2.37995 9.09493 2.29842 9.11952 2.22097C9.14411 2.14353 9.18372 2.07168 9.23609 2.00955C9.28845 1.94741 9.35255 1.8962 9.42471 1.85885C11.639 0.732861 14.0986 0.175628 16.582 0.237385C19.0653 0.299142 21.4942 0.977947 23.6498 2.2126C23.7205 2.25326 23.7824 2.30752 23.8321 2.37224C23.8817 2.43697 23.918 2.51088 23.9389 2.58971C23.9599 2.66854 23.965 2.75074 23.954 2.83155C23.943 2.91237 23.9161 2.99021 23.8748 3.06058L16.7537 15.2819C16.6994 15.3755 16.6214 15.4531 16.5276 15.507C16.4337 15.5609 16.3274 15.5892 16.2192 15.5891H16.2034C16.0926 15.5861 15.9845 15.5535 15.8905 15.4947C15.7965 15.4359 15.72 15.353 15.6688 15.2546L9.15989 2.69283ZM15.8372 18.8484V18.8472L9.32797 6.28538C9.25238 6.13995 9.12231 6.03033 8.96618 5.98046C8.81004 5.93059 8.64052 5.94452 8.49462 6.0192C6.75984 6.9087 5.21782 8.13205 3.95704 9.61902C2.69627 11.106 1.74156 12.8273 1.14773 14.6842C0.553889 16.5411 0.332611 18.497 0.496593 20.4396C0.660575 22.3822 1.20659 24.2733 2.10329 26.0044C3 27.7354 4.22974 29.2723 5.72194 30.5269C7.21414 31.7815 8.93942 32.7291 10.7987 33.3152C12.6581 33.9013 14.6149 34.1144 16.5568 33.9424C18.4987 33.7703 20.3875 33.2165 22.1148 32.3126C22.2599 32.2366 22.3691 32.1063 22.4185 31.9502C22.4679 31.794 22.4535 31.6247 22.3785 31.4791L15.8372 18.8484ZM23.4672 30.7219L23.5167 30.821C23.5915 30.9671 23.7204 31.0782 23.8759 31.1307C23.9397 31.1518 24.0071 31.1602 24.0741 31.1554C24.1721 31.1527 24.2687 31.1317 24.359 31.0935C24.5845 30.9818 24.8036 30.8577 25.0155 30.7219C25.6455 30.3564 26.246 29.9423 26.8115 29.4833H22.8231L23.4672 30.7219ZM22.179 28.2446H28.1616C28.5463 27.8581 28.9023 27.4442 29.2269 27.006H21.5349L22.179 28.2446ZM20.9032 25.7673H30.1063C30.36 25.3697 30.5876 24.9559 30.7876 24.5287H20.2591L20.9032 25.7673ZM19.615 23.2901H31.3326C31.4969 22.8857 31.6375 22.4721 31.7537 22.0514H18.9709L19.615 23.2901ZM18.3268 20.8128H32.0634C32.1377 20.404 32.1996 19.9953 32.2368 19.5741H17.6951L18.3268 20.8128ZM24.9659 5.15636C24.8964 5.11313 24.8185 5.08524 24.7373 5.07456C24.6561 5.06388 24.5736 5.07065 24.4953 5.09443C24.415 5.11275 24.3395 5.14753 24.2734 5.19657C24.2073 5.24561 24.1521 5.30784 24.1113 5.37931L23.7768 5.94909H26.1674C25.7814 5.66355 25.3803 5.39893 24.9659 5.15636ZM27.6662 7.18773H23.0584L22.34 8.42637H28.8429C28.4764 7.98976 28.0834 7.5761 27.6662 7.18773ZM29.7719 9.66501H21.6092L20.8908 10.9037H30.5274C30.3039 10.4741 30.0515 10.0603 29.7719 9.66501ZM31.122 12.1423H20.1724L19.454 13.3809H31.6051C31.4678 12.9592 31.3065 12.5456 31.122 12.1423ZM31.9519 14.6196H18.7232L18.0048 15.8582H32.1748C32.1257 15.4412 32.0512 15.0276 31.9519 14.6196ZM32.2987 17.0969H17.2864L16.9891 17.6047C16.9354 17.6941 16.906 17.796 16.9039 17.9003C16.9017 18.0046 16.9268 18.1077 16.9767 18.1992L17.051 18.3355H32.3235C32.3359 18.2116 32.3359 18.0754 32.3359 17.9515C32.3359 17.6666 32.3235 17.3817 32.2987 17.0969Z" fill="white"/>
<path d="M8.87531 5.40696C8.64826 4.97673 8.11388 4.80993 7.69705 5.06072C4.39718 7.04608 1.93179 10.182 0.788376 13.8808C-0.441993 17.861 -0.0408669 22.1669 1.90351 25.8512C3.84789 29.5356 7.17625 32.2967 11.1564 33.5271C14.8552 34.6705 18.8354 34.4049 22.3366 32.801C22.7789 32.5985 22.9427 32.0632 22.7157 31.6329L15.7955 18.52L8.87531 5.40696Z" fill="white"/>
</g>
<path d="M54.4361 6.48689C56.9864 6.48689 58.9735 7.10322 60.3974 8.33586C61.8426 9.54726 62.5652 11.2687 62.5652 13.5002C62.5652 15.7317 61.8426 17.4638 60.3974 18.6965C58.9735 19.9079 56.9864 20.5136 54.4361 20.5136H50.2599V27.5269H44.7768V6.48689H54.4361ZM53.5753 16.4012C55.8919 16.4012 57.0501 15.4342 57.0501 13.5002C57.0501 11.5662 55.8919 10.5993 53.5753 10.5993H50.2599V16.4012H53.5753ZM65.6883 27.5269V11.5875H70.4701L70.6932 15.0304C71.0758 13.8615 71.6602 12.9477 72.4466 12.2888C73.2542 11.6087 74.2849 11.2687 75.5388 11.2687C75.9426 11.2687 76.2827 11.3112 76.5589 11.3962C76.8565 11.46 77.0903 11.5344 77.2603 11.6194L76.7183 16.0824C76.5058 16.0186 76.2295 15.9549 75.8895 15.8911C75.5707 15.8274 75.1775 15.7955 74.71 15.7955C73.7324 15.7955 72.8823 16.1037 72.1597 16.72C71.4583 17.3363 71.1077 18.2608 71.1077 19.4934V27.5269H65.6883ZM86.9778 27.8457C84.3213 27.8457 82.2173 27.1231 80.6658 25.6779C79.1356 24.2327 78.3705 22.1925 78.3705 19.5572C78.3705 17.8145 78.7212 16.3268 79.4225 15.0942C80.1451 13.8403 81.1227 12.8945 82.3554 12.257C83.6093 11.5981 85.0651 11.2687 86.7228 11.2687C88.4017 11.2687 89.8257 11.5981 90.9945 12.257C92.1847 12.8945 93.0879 13.7871 93.7042 14.9348C94.3206 16.0612 94.6287 17.3576 94.6287 18.824C94.6287 19.2278 94.6075 19.6209 94.565 20.0035C94.5437 20.3648 94.5225 20.6729 94.5012 20.928H83.6305C83.7793 22.0331 84.1406 22.8301 84.7144 23.3189C85.2882 23.7864 86.0427 24.0202 86.9778 24.0202C87.7854 24.0202 88.423 23.8608 88.8905 23.542C89.3794 23.2233 89.7406 22.7769 89.9744 22.2031L94.3099 23.6377C94.0124 24.5515 93.4917 25.3273 92.7479 25.9648C92.0253 26.5811 91.1539 27.0487 90.1338 27.3675C89.1349 27.6863 88.0829 27.8457 86.9778 27.8457ZM86.7228 15.0623C85.0013 15.0623 83.9812 16.0505 83.6624 18.027H89.4962C89.2625 16.0505 88.338 15.0623 86.7228 15.0623ZM104.355 27.8457C102.761 27.8457 101.284 27.5906 99.9238 27.0806C98.5637 26.5493 97.4267 25.7948 96.5128 24.8172L99.0631 21.8206C99.5944 22.5007 100.296 23.0745 101.167 23.542C102.06 23.9883 103.048 24.2115 104.132 24.2115C104.791 24.2115 105.333 24.1159 105.758 23.9246C106.183 23.7333 106.395 23.4358 106.395 23.032C106.395 22.7557 106.289 22.5219 106.076 22.3306C105.864 22.1394 105.439 21.98 104.801 21.8525L102.57 21.4062C100.572 21.0024 99.1481 20.4073 98.298 19.6209C97.4692 18.8134 97.0548 17.7614 97.0548 16.465C97.0548 15.5936 97.3204 14.7647 97.8517 13.9784C98.383 13.1921 99.2013 12.5439 100.306 12.0338C101.412 11.5237 102.825 11.2687 104.546 11.2687C107.84 11.2687 110.242 12.1826 111.751 14.0103L109.169 16.9431C108.659 16.3056 108 15.8061 107.192 15.4448C106.385 15.0835 105.577 14.9029 104.769 14.9029C103.218 14.9029 102.442 15.2961 102.442 16.0824C102.442 16.3587 102.57 16.6031 102.825 16.8156C103.101 17.0281 103.601 17.1982 104.323 17.3257L107.224 17.8995C108.861 18.2183 110.04 18.7708 110.763 19.5572C111.485 20.3223 111.847 21.2574 111.847 22.3625C111.847 23.914 111.22 25.221 109.966 26.2836C108.733 27.325 106.863 27.8457 104.355 27.8457ZM126.071 11.5875V15.4448H121.321V21.8525C121.321 22.6176 121.502 23.1701 121.863 23.5102C122.245 23.8289 122.766 23.9883 123.425 23.9883C123.935 23.9883 124.371 23.9352 124.732 23.8289C125.093 23.7014 125.433 23.5208 125.752 23.287L126.326 26.6343C125.795 26.9956 125.115 27.2931 124.286 27.5269C123.478 27.7394 122.66 27.8457 121.831 27.8457C120.003 27.8457 118.558 27.4631 117.496 26.698C116.454 25.9117 115.923 24.594 115.902 22.7451V15.4448H113.16V11.5875H115.902V8.01707L121.321 6.51877V11.5875H126.071ZM136.161 11.2687C137.84 11.2687 139.307 11.5981 140.561 12.257C141.836 12.9158 142.824 13.8615 143.525 15.0942C144.248 16.3268 144.609 17.8145 144.609 19.5572C144.609 21.2999 144.248 22.7876 143.525 24.0202C142.824 25.2529 141.836 26.1986 140.561 26.8574C139.307 27.5163 137.84 27.8457 136.161 27.8457C134.504 27.8457 133.037 27.5163 131.762 26.8574C130.508 26.1986 129.52 25.2529 128.797 24.0202C128.096 22.7876 127.745 21.2999 127.745 19.5572C127.745 17.8145 128.096 16.3268 128.797 15.0942C129.52 13.8615 130.508 12.9158 131.762 12.257C133.037 11.5981 134.504 11.2687 136.161 11.2687ZM136.161 15.126C135.226 15.126 134.493 15.4767 133.962 16.178C133.452 16.8581 133.197 17.9845 133.197 19.5572C133.197 21.1086 133.452 22.235 133.962 22.9363C134.493 23.6377 135.226 23.9883 136.161 23.9883C137.118 23.9883 137.851 23.6377 138.361 22.9363C138.892 22.235 139.158 21.1086 139.158 19.5572C139.158 17.9845 138.892 16.8581 138.361 16.178C137.851 15.4767 137.118 15.126 136.161 15.126Z" fill="white"/>
</g>
<defs>
<clipPath id="clip0_63_648">
<rect width="146.513" height="41.2903" fill="white" transform="translate(0 -4.47311)"/>
</clipPath>
<clipPath id="clip1_63_648">
<rect width="32.745" height="34.8351" fill="white" transform="translate(-0.191162 -0.319336)"/>
</clipPath>
</defs>
</svg>
